<svg xmlns="http://www.w3.org/2000/svg" xmlns:xlink="http://www.w3.org/1999/xlink" width="369" height="105" viewBox="0 0 369 105">
  <defs>
    <filter id="Hot-Key" x="187" y="21" width="182" height="67" filterUnits="userSpaceOnUse">
      <feOffset dy="3" input="SourceAlpha"/>
      <feGaussianBlur stdDeviation="3" result="blur"/>
      <feFlood flood-opacity="0.161"/>
      <feComposite operator="in" in2="blur"/>
      <feComposite in="SourceGraphic"/>
    </filter>
  </defs>
  <g id="Group_2" data-name="Group 2" transform="translate(-682 -36)">
    <g id="Group_1" data-name="Group 1" transform="translate(658 12)">
      <g id="Rectangle_2" data-name="Rectangle 2" transform="translate(78 78)" fill="#fff" stroke="#707070" stroke-width="1">
        <rect width="51" height="51" rx="5" stroke="none"/>
        <rect x="0.5" y="0.5" width="50" height="50" rx="4.5" fill="none"/>
      </g>
      <g id="Rectangle_3" data-name="Rectangle 3" transform="translate(132 78)" fill="#fff" stroke="#707070" stroke-width="1">
        <rect width="51" height="51" rx="5" stroke="none"/>
        <rect x="0.5" y="0.5" width="50" height="50" rx="4.5" fill="none"/>
      </g>
      <g id="Rectangle_4" data-name="Rectangle 4" transform="translate(24 78)" fill="#fff" stroke="#707070" stroke-width="1">
        <rect width="50" height="51" rx="5" stroke="none"/>
        <rect x="0.5" y="0.5" width="49" height="50" rx="4.5" fill="none"/>
      </g>
      <g id="Rectangle_1" data-name="Rectangle 1" transform="translate(78 24)" fill="#fff" stroke="#707070" stroke-width="1">
        <rect width="51" height="50" rx="5" stroke="none"/>
        <rect x="0.5" y="0.5" width="50" height="49" rx="4.5" fill="none"/>
      </g>
      <text id="W" transform="translate(104 59)" fill="#707070" font-size="27" font-family="Montserrat-Medium, Montserrat" font-weight="500"><tspan x="-15.201" y="0">W</tspan></text>
      <text id="A" transform="translate(39 114)" fill="#707070" font-size="29" font-family="Montserrat-Medium, Montserrat" font-weight="500"><tspan x="0" y="0">A</tspan></text>
      <text id="S" transform="translate(95 113)" fill="#707070" font-size="28" font-family="Montserrat-Medium, Montserrat" font-weight="500"><tspan x="0" y="0">S</tspan></text>
      <text id="D" transform="translate(145 112)" fill="#707070" font-size="27" font-family="Montserrat-Medium, Montserrat" font-weight="500"><tspan x="0" y="0">D</tspan></text>
    </g>
    <g transform="matrix(1, 0, 0, 1, 682, 36)" filter="url(#Hot-Key)">
      <text id="Hot-Key-2" data-name="Hot-Key" transform="translate(196 66)" fill="#fff700" font-size="40" font-family="Montserrat-Medium, Montserrat" font-weight="500"><tspan x="0" y="0">Hot-Key</tspan></text>
    </g>
  </g>
</svg>
